<svg width="3134" height="797" viewBox="0 0 3134 797" fill="none" xmlns="http://www.w3.org/2000/svg">
<path d="M455.364 343.925H645.861C509.115 235.187 398.043 69.3342 359.6 0C268.161 172.992 81.9198 338.433 0.229004 399.53C151.803 499.206 302.966 706.042 359.6 797C423.03 664.373 576.87 511.769 645.861 452.045H455.364L359.6 563.255L208.232 399.53L359.6 235.805L455.364 343.925Z" fill="url(#paint0_linear_57_121)"/>
<path d="M3133.98 661.06C3133.98 688.51 3127.23 712.473 3113.72 732.951C3100.22 753.43 3080.61 769.333 3054.9 780.661C3029.63 791.554 2998.7 797 2962.1 797C2945.98 797 2930.07 795.911 2914.39 793.732C2899.14 791.554 2884.32 788.504 2869.95 784.582C2856 780.225 2842.71 774.997 2830.08 768.897V676.745C2852.3 686.331 2875.17 695.263 2898.7 703.541C2922.67 711.384 2946.41 715.305 2969.94 715.305C2986.06 715.305 2998.91 713.127 3008.5 708.77C3018.52 704.413 3025.71 698.531 3030.07 691.124C3034.86 683.717 3037.26 675.22 3037.26 665.635C3037.26 653.871 3033.12 643.85 3024.84 635.571C3017 627.293 3006.32 619.668 2992.81 612.697C2979.31 605.29 2963.84 597.447 2946.41 589.169C2935.52 583.94 2923.76 577.841 2911.12 570.869C2898.48 563.462 2886.29 554.53 2874.52 544.073C2863.19 533.181 2853.83 520.11 2846.42 504.86C2839.01 489.61 2835.31 471.311 2835.31 449.961C2835.31 422.076 2841.63 398.33 2854.26 378.723C2867.33 358.681 2885.63 343.431 2909.16 332.974C2933.12 322.518 2961.23 317.289 2993.47 317.289C3017.87 317.289 3040.96 320.121 3062.75 325.785C3084.97 331.45 3108.06 339.51 3132.02 349.967L3100 427.087C3078.65 418.373 3059.48 411.619 3042.49 406.826C3025.49 402.034 3008.06 399.637 2990.2 399.637C2978 399.637 2967.54 401.598 2958.83 405.519C2950.12 409.441 2943.36 414.887 2938.57 421.858C2934.21 428.83 2932.03 437.108 2932.03 446.693C2932.03 457.586 2935.3 466.954 2941.84 474.796C2948.37 482.203 2958.18 489.392 2971.25 496.364C2984.32 503.335 3000.66 511.613 3020.26 521.199C3044.23 532.527 3064.49 544.291 3081.05 556.491C3098.04 568.691 3111.11 583.069 3120.26 599.626C3129.41 616.183 3133.98 636.661 3133.98 661.06Z" fill="url(#paint1_linear_57_121)"/>
<path d="M2563.33 323.824C2605.59 323.824 2640.45 329.053 2667.9 339.51C2695.35 349.531 2715.82 364.998 2729.33 385.912C2742.84 406.39 2749.59 432.315 2749.59 463.686C2749.59 485.035 2745.45 503.77 2737.17 519.892C2729.33 535.577 2718.66 549.084 2705.15 560.412C2692.08 571.305 2677.92 580.237 2662.67 587.208L2799.91 790.464H2690.12L2579.01 611.39H2526.07V790.464H2427.39V323.824H2563.33ZM2556.14 404.865H2526.07V531.002H2558.1C2579.88 531.002 2597.53 528.606 2611.04 523.813C2624.54 519.02 2634.35 511.831 2640.45 502.246C2646.55 492.224 2649.6 480.242 2649.6 466.3C2649.6 451.486 2646.11 439.722 2639.14 431.008C2632.6 421.858 2622.37 415.322 2608.42 411.401C2594.92 407.044 2577.49 404.865 2556.14 404.865Z" fill="url(#paint2_linear_57_121)"/>
<path d="M2330.29 790.464H2061.68V323.824H2330.29V404.865H2160.36V507.474H2318.52V588.515H2160.36V708.77H2330.29V790.464Z" fill="url(#paint3_linear_57_121)"/>
<path d="M1964.58 790.464H1695.96V323.824H1964.58V404.865H1794.65V507.474H1952.81V588.515H1794.65V708.77H1964.58V790.464Z" fill="url(#paint4_linear_57_121)"/>
<path d="M1578.56 790.464H1479.87V589.169H1294.91V790.464H1196.23V323.824H1294.91V506.82H1479.87V323.824H1578.56V790.464Z" fill="url(#paint5_linear_57_121)"/>
<path d="M978.12 399.637C959.385 399.637 942.61 403.341 927.796 410.748C913.418 418.155 901.219 428.83 891.197 442.772C881.176 456.279 873.551 472.836 868.323 492.442C863.53 512.049 861.134 534.052 861.134 558.452C861.134 591.565 865.055 619.886 872.898 643.414C881.176 666.506 894.029 684.152 911.458 696.352C928.886 708.552 951.107 714.652 978.12 714.652C997.291 714.652 1016.24 712.473 1034.98 708.116C1054.15 703.759 1074.85 697.659 1097.07 689.817V772.818C1076.59 781.097 1056.33 787.197 1036.29 791.118C1016.24 795.039 993.806 797 968.971 797C921.043 797 881.394 787.197 850.023 767.59C819.088 747.548 796.214 719.662 781.4 683.935C766.586 647.771 759.179 605.726 759.179 557.798C759.179 522.506 763.971 490.264 773.557 461.072C783.142 431.444 797.085 405.955 815.385 384.605C834.12 363.256 856.994 346.699 884.008 334.935C911.458 323.171 942.828 317.289 978.12 317.289C1001.21 317.289 1024.31 320.339 1047.4 326.439C1070.93 332.103 1093.36 339.946 1114.71 349.967L1082.69 430.354C1065.26 422.076 1047.62 414.887 1029.75 408.787C1012.32 402.687 995.113 399.637 978.12 399.637Z" fill="url(#paint6_linear_57_121)"/>
<defs>
<linearGradient id="paint0_linear_57_121" x1="267.19" y1="801.5" x2="512.016" y2="159.926" gradientUnits="userSpaceOnUse">
<stop stop-color="#016DB0"/>
<stop offset="1" stop-color="#01FFCA"/>
</linearGradient>
<linearGradient id="paint1_linear_57_121" x1="2955.74" y1="799.708" x2="3130.09" y2="442.392" gradientUnits="userSpaceOnUse">
<stop stop-color="#016DB0"/>
<stop offset="1" stop-color="#01FFCA"/>
</linearGradient>
<linearGradient id="paint2_linear_57_121" x1="2581.42" y1="793.099" x2="2726.33" y2="418.872" gradientUnits="userSpaceOnUse">
<stop stop-color="#016DB0"/>
<stop offset="1" stop-color="#01FFCA"/>
</linearGradient>
<linearGradient id="paint3_linear_57_121" x1="2172.74" y1="793.099" x2="2352.12" y2="459.087" gradientUnits="userSpaceOnUse">
<stop stop-color="#016DB0"/>
<stop offset="1" stop-color="#01FFCA"/>
</linearGradient>
<linearGradient id="paint4_linear_57_121" x1="1807.03" y1="793.099" x2="1986.41" y2="459.087" gradientUnits="userSpaceOnUse">
<stop stop-color="#016DB0"/>
<stop offset="1" stop-color="#01FFCA"/>
</linearGradient>
<linearGradient id="paint5_linear_57_121" x1="1354.31" y1="793.099" x2="1496.45" y2="416.385" gradientUnits="userSpaceOnUse">
<stop stop-color="#016DB0"/>
<stop offset="1" stop-color="#01FFCA"/>
</linearGradient>
<linearGradient id="paint6_linear_57_121" x1="906.188" y1="799.708" x2="1063.36" y2="422.872" gradientUnits="userSpaceOnUse">
<stop stop-color="#016DB0"/>
<stop offset="1" stop-color="#01FFCA"/>
</linearGradient>
</defs>
</svg>
