<svg width="33" height="32" viewBox="0 0 33 32" fill="none" xmlns="http://www.w3.org/2000/svg">
<g filter="url(#filter0_d_623_136)">
<rect x="4" width="25" height="24" rx="12" fill="url(#paint0_linear_623_136)"/>
</g>
<path d="M16 7.04169C15.7127 7.04169 15.4283 7.09827 15.1629 7.2082C14.8975 7.31813 14.6563 7.47926 14.4532 7.68239C14.2501 7.88552 14.0889 8.12667 13.979 8.39207C13.8691 8.65747 13.8125 8.94192 13.8125 9.22919C13.8125 9.51645 13.8691 9.80091 13.979 10.0663C14.0889 10.3317 14.2501 10.5729 14.4532 10.776C14.6563 10.9791 14.8975 11.1402 15.1629 11.2502C15.4283 11.3601 15.7127 11.4167 16 11.4167C16.2872 11.4167 16.5717 11.3601 16.8371 11.2502C17.1025 11.1402 17.3436 10.9791 17.5468 10.776C17.7499 10.5729 17.911 10.3317 18.021 10.0663C18.1309 9.80091 18.1875 9.51645 18.1875 9.22919C18.1875 8.94192 18.1309 8.65747 18.021 8.39207C17.911 8.12667 17.7499 7.88552 17.5468 7.68239C17.3436 7.47926 17.1025 7.31813 16.8371 7.2082C16.5717 7.09827 16.2872 7.04169 16 7.04169Z" fill="white"/>
<path d="M13.0833 12.2917C12.796 12.2917 12.5116 12.3483 12.2462 12.4582C11.9808 12.5681 11.7396 12.7293 11.5365 12.9324C11.3334 13.1355 11.1723 13.3767 11.0623 13.6421C10.9524 13.9075 10.8958 14.1919 10.8958 14.4792C10.8958 14.7665 10.9524 15.0509 11.0623 15.3163C11.1723 15.5817 11.3334 15.8229 11.5365 16.026C11.7396 16.2291 11.9808 16.3902 12.2462 16.5002C12.5116 16.6101 12.796 16.6667 13.0833 16.6667C13.3706 16.6667 13.655 16.6101 13.9204 16.5002C14.1858 16.3902 14.427 16.2291 14.6301 16.026C14.8332 15.8229 14.9944 15.5817 15.1043 15.3163C15.2142 15.0509 15.2708 14.7665 15.2708 14.4792C15.2708 14.1919 15.2142 13.9075 15.1043 13.6421C14.9944 13.3767 14.8332 13.1355 14.6301 12.9324C14.427 12.7293 14.1858 12.5681 13.9204 12.4582C13.655 12.3483 13.3706 12.2917 13.0833 12.2917Z" fill="white"/>
<path d="M18.9166 12.2917C18.6294 12.2917 18.3449 12.3483 18.0795 12.4582C17.8141 12.5681 17.573 12.7293 17.3699 12.9324C17.1667 13.1355 17.0056 13.3767 16.8957 13.6421C16.7857 13.9075 16.7291 14.1919 16.7291 14.4792C16.7291 14.7665 16.7857 15.0509 16.8957 15.3163C17.0056 15.5817 17.1667 15.8229 17.3699 16.026C17.573 16.2291 17.8141 16.3902 18.0795 16.5002C18.3449 16.6101 18.6294 16.6667 18.9166 16.6667C19.2039 16.6667 19.4884 16.6101 19.7538 16.5002C20.0192 16.3902 20.2603 16.2291 20.4634 16.026C20.6666 15.8229 20.8277 15.5817 20.9376 15.3163C21.0476 15.0509 21.1041 14.7665 21.1041 14.4792C21.1041 14.1919 21.0476 13.9075 20.9376 13.6421C20.8277 13.3767 20.6666 13.1355 20.4634 12.9324C20.2603 12.7293 20.0192 12.5681 19.7538 12.4582C19.4884 12.3483 19.2039 12.2917 18.9166 12.2917Z" fill="white"/>
<defs>
<filter id="filter0_d_623_136" x="0" y="0" width="33" height="32" filterUnits="userSpaceOnUse" color-interpolation-filters="sRGB">
<feFlood flood-opacity="0" result="BackgroundImageFix"/>
<feColorMatrix in="SourceAlpha" type="matrix" values="0 0 0 0 0 0 0 0 0 0 0 0 0 0 0 0 0 0 127 0" result="hardAlpha"/>
<feOffset dy="4"/>
<feGaussianBlur stdDeviation="2"/>
<feComposite in2="hardAlpha" operator="out"/>
<feColorMatrix type="matrix" values="0 0 0 0 0 0 0 0 0 0 0 0 0 0 0 0 0 0 0.25 0"/>
<feBlend mode="normal" in2="BackgroundImageFix" result="effect1_dropShadow_623_136"/>
<feBlend mode="normal" in="SourceGraphic" in2="effect1_dropShadow_623_136" result="shape"/>
</filter>
<linearGradient id="paint0_linear_623_136" x1="24.8761" y1="15.8374" x2="10.0232" y2="-1.2936" gradientUnits="userSpaceOnUse">
<stop stop-color="#814EBB"/>
<stop offset="1" stop-color="#FF56BB"/>
</linearGradient>
</defs>
</svg>
